HIERARCHY
ROOT Hips
{
  OFFSET 39.9352 98.8163 4.02091
  CHANNELS 6 Xposition Yposition Zposition Zrotation Xrotation Yrotation
  JOINT spine
  {
    OFFSET 0 8.30103 0.477351
    CHANNELS 3 Zrotation Xrotation Yrotation
    JOINT spine1
    {
      OFFSET 0 10.4565 0
      CHANNELS 3 Zrotation Xrotation Yrotation
      JOINT spine2
      {
        OFFSET 0 10.0192 0
        CHANNELS 3 Zrotation Xrotation Yrotation
        JOINT Neck
        {
          OFFSET 0 25.7235 1.22641
          CHANNELS 3 Zrotation Xrotation Yrotation
          JOINT Head
          {
            OFFSET 0 7.77175 0
            CHANNELS 3 Zrotation Xrotation Yrotation
            End Site
            {
              OFFSET 0 18.812 -6.20394
            }
          }
        }
        JOINT RightShoulder
        {
          OFFSET -4.2188 10.82 -0.587439
          CHANNELS 3 Zrotation Xrotation Yrotation
          JOINT RightArm
          {
            OFFSET 0 14.1914 0
            CHANNELS 3 Zrotation Xrotation Yrotation
            JOINT RightArmRoll
            {
              OFFSET 0 7.16408 0
              CHANNELS 3 Zrotation Xrotation Yrotation
              JOINT RightForeArm
              {
                OFFSET 0 20.8665 0
                CHANNELS 3 Zrotation Xrotation Yrotation
                JOINT RightForeArmRoll
                {
                  OFFSET 0 8.03921 0
                  CHANNELS 3 Zrotation Xrotation Yrotation
                  JOINT RightHand
                  {
                    OFFSET 0 16.133 0
                    CHANNELS 3 Zrotation Xrotation Yrotation
                    End Site
                    {
                      OFFSET 0 0 0
                    }
                  }
                }
              }
            }
          }
        }
        JOINT LeftShoulder
        {
          OFFSET 4.2188 10.82 -0.587439
          CHANNELS 3 Zrotation Xrotation Yrotation
          JOINT LeftArm
          {
            OFFSET 0 14.1914 0
            CHANNELS 3 Zrotation Xrotation Yrotation
            JOINT LeftArmRoll
            {
              OFFSET 0 7.16408 0
              CHANNELS 3 Zrotation Xrotation Yrotation
              JOINT LeftForeArm
              {
                OFFSET 0 20.8665 0
                CHANNELS 3 Zrotation Xrotation Yrotation
                JOINT LeftForeArmRoll
                {
                  OFFSET 0 8.03921 0
                  CHANNELS 3 Zrotation Xrotation Yrotation
                  JOINT LeftHand
                  {
                    OFFSET 0 16.133 0
                    CHANNELS 3 Zrotation Xrotation Yrotation
                    End Site
                    {
                      OFFSET 0 0 0
                    }
                  }
                }
              }
            }
          }
        }
      }
    }
  }
  JOINT RightUpLeg
  {
    OFFSET -7.35773 -1.34921 -1.13181
    CHANNELS 3 Zrotation Xrotation Yrotation
    JOINT RightUpLegRoll
    {
      OFFSET 0 18.9168 0
      CHANNELS 3 Zrotation Xrotation Yrotation
      JOINT RightLeg
      {
        OFFSET 0 -23.4256 0
        CHANNELS 3 Zrotation Xrotation Yrotation
        JOINT RightLegRoll
        {
          OFFSET 0 23.5023 0
          CHANNELS 3 Zrotation Xrotation Yrotation
          JOINT RightFoot
          {
            OFFSET 0 19.5617 0
            CHANNELS 3 Zrotation Xrotation Yrotation
            JOINT RightToeBase
            {
              OFFSET 0 16.3526 0
              CHANNELS 3 Zrotation Xrotation Yrotation
              End Site
              {
                OFFSET 0.00693124 7.91943 -0.912837
              }
            }
          }
        }
      }
    }
  }
  JOINT LeftUpLeg
  {
    OFFSET 7.35773 -1.34921 -1.13181
    CHANNELS 3 Zrotation Xrotation Yrotation
    JOINT LeftUpLegRoll
    {
      OFFSET 0 18.9169 0
      CHANNELS 3 Zrotation Xrotation Yrotation
      JOINT LeftLeg
      {
        OFFSET 0 23.4255 0
        CHANNELS 3 Zrotation Xrotation Yrotation
        JOINT LeftLegRoll
        {
          OFFSET 0 23.7195 0
          CHANNELS 3 Zrotation Xrotation Yrotation
          JOINT LeftFoot
          {
            OFFSET 0 19.3444 0
            CHANNELS 3 Zrotation Xrotation Yrotation
            JOINT LeftToeBase
            {
              OFFSET 0 16.3526 0
              CHANNELS 3 Zrotation Xrotation Yrotation
              End Site
              {
                OFFSET -0.0310629 7.91944 -0.912836
              }
            }
          }
        }
      }
    }
  }
}
MOTION
Frames: 6
Frame Time: 0.00208333
39.8257 98.824 2.87938 0.905323 -3.35816 0.397075 0.0777666 -1.18767 0.0418546 0.160414 1.63668 0.0834419 0.1595 3.28174 0.0806797 -2.20098 20.953 -1.30722 0.928301 -7.15302 -1.88341 74.2491 -0.613698 -2.07242 97.7097 22.6973 25.5919 1.4184e-006 -2.99976e-006 -4.57489e-006 7.37034 0.0496037 -0.083709 -7.04805e-006 2.31193e-006 -3.08325 8.02919 -4.95143 0.697676 -65.2777 2.16908 -0.371886 -103.945 12.3559 -13.1299 -1.49435e-006 1.32911e-006 -1.24508e-006 -11.4953 6.48253 1.16793 5.87123e-006 -1.87649e-006 3.00876 -8.0289 -4.95145 -0.697695 174.995 -0.716765 1.96104 180 7.01546e-015 178.918 175.487 5.28254 179.78 -5.24389e-007 -7.81706e-006 0.0654585 -18.3047 67.5876 19.1881 8.13649 25.2327 -3.48774 -176.13 -0.607243 1.09828 4.54188e-006 -4.6773e-006 -1.16613 -3.30226 -9.51733 0.427475 3.41862e-006 4.08782e-006 -0.123772 18.3711 67.4992 -19.1319 -8.13649 25.2327 3.48774 
39.8307 98.7973 2.88228 0.906903 -3.36841 0.40079 0.0777161 -1.18618 0.042549 0.159973 1.639 0.0839776 0.159054 3.28406 0.0812342 -2.19339 20.9567 -1.31329 0.917754 -7.14733 -1.88875 74.2553 -0.613858 -2.07311 97.6705 22.7367 25.76 1.4184e-006 -2.99976e-006 -4.57489e-006 7.20888 0.0488809 -0.0765985 -7.04805e-006 2.31193e-006 -3.08487 8.02919 -4.95143 0.697676 -65.2814 2.16994 -0.371828 -103.944 12.3717 -13.1698 -1.49435e-006 1.32911e-006 -1.24508e-006 -11.4586 6.47275 1.16786 5.87123e-006 -1.87649e-006 3.00876 -8.0289 -4.95145 -0.697695 174.994 -0.726045 1.96338 180 7.01546e-015 178.918 175.487 5.28638 179.78 -5.24389e-007 -7.81706e-006 0.0654585 -18.3033 67.5858 19.1866 8.13649 25.2327 -3.48774 -176.132 -0.619813 1.09693 4.54188e-006 -4.6773e-006 -1.16613 -3.30429 -9.51174 0.426915 3.41862e-006 4.08782e-006 -0.123772 18.368 67.4952 -19.1284 -8.13649 25.2327 3.48774 
39.8322 98.8002 2.88753 0.908464 -3.3787 0.404404 0.0776409 -1.18468 0.0432523 0.159429 1.64131 0.0844874 0.158506 3.28637 0.081765 -2.18471 20.9604 -1.31969 0.906122 -7.14152 -1.89424 74.2624 -0.613923 -2.07387 97.6302 22.7758 25.9258 1.4184e-006 -2.99976e-006 -4.57489e-006 7.05005 0.0481903 -0.0704268 -7.04805e-006 2.31193e-006 -3.0865 8.02919 -4.95143 0.697676 -65.2844 2.17104 -0.371981 -103.942 12.387 -13.2064 -1.49435e-006 1.32911e-006 -1.24508e-006 -11.4247 6.46407 1.16794 5.87123e-006 -1.87649e-006 3.00876 -8.0289 -4.95145 -0.697695 174.993 -0.735301 1.9657 180 7.01546e-015 178.917 175.487 5.29024 179.781 -5.24389e-007 -7.81706e-006 0.0654585 -18.3018 67.584 19.185 8.13649 25.2327 -3.48774 -176.134 -0.632634 1.09555 4.54188e-006 -4.6773e-006 -1.16613 -3.30638 -9.50571 0.426321 3.41862e-006 4.08782e-006 -0.123772 18.3647 67.4912 -19.1249 -8.13649 25.2327 3.48774 
39.8298 98.793 2.88609 0.910014 -3.38902 0.407946 0.0775483 -1.18318 0.0439618 0.158815 1.64361 0.084979 0.157887 3.28867 0.0822793 -2.17528 20.9641 -1.32631 0.893732 -7.13562 -1.89981 74.2703 -0.613923 -2.07467 97.5891 22.8148 26.0902 1.4184e-006 -2.99976e-006 -4.57489e-006 6.89307 0.047522 -0.0649123 -7.04805e-006 2.31193e-006 -3.08815 8.02919 -4.95143 0.697676 -65.2871 2.17229 -0.372282 -103.941 12.4018 -13.2405 -1.49435e-006 1.32911e-006 -1.24508e-006 -11.3926 6.45615 1.16813 5.87123e-006 -1.87649e-006 3.00876 -8.0289 -4.95145 -0.697695 174.991 -0.744539 1.96802 180 7.01546e-015 178.917 175.487 5.29415 179.781 -5.24389e-007 -7.81706e-006 0.0654585 -18.3004 67.5822 19.1834 8.13649 25.2327 -3.48774 -176.136 -0.64563 1.09413 4.54188e-006 -4.6773e-006 -1.16613 -3.30853 -9.49935 0.425703 3.41862e-006 4.08782e-006 -0.123772 18.3613 67.487 -19.1213 -8.13649 25.2327 3.48774 
39.8341 98.7902 2.89728 0.911557 -3.39936 0.411447 0.0774458 -1.18167 0.0446749 0.15816 1.64591 0.0854604 0.157227 3.29097 0.0827841 -2.16541 20.9678 -1.33305 0.880909 -7.12966 -1.90544 74.2787 -0.613885 -2.0755 97.5474 22.8534 26.2538 1.4184e-006 -2.99976e-006 -4.57489e-006 6.73714 0.0468667 -0.0597734 -7.04805e-006 2.31193e-006 -3.0898 8.02919 -4.95143 0.697676 -65.2894 2.17364 -0.372667 -103.94 12.4164 -13.2733 -1.49435e-006 1.32911e-006 -1.24508e-006 -11.3616 6.44868 1.16837 5.87123e-006 -1.87649e-006 3.00876 -8.0289 -4.95145 -0.697695 174.99 -0.753768 1.97034 180 7.01546e-015 178.917 175.488 5.29804 179.781 -5.24389e-007 -7.81706e-006 0.0654585 -18.2989 67.5804 19.1819 8.13649 25.2327 -3.48774 -176.138 -0.658726 1.0927 4.54188e-006 -4.6773e-006 -1.16613 -3.3107 -9.49282 0.42507 3.41862e-006 4.08782e-006 -0.123772 18.358 67.4828 -19.1176 -8.13649 25.2327 3.48774 
39.8392 98.8172 2.89737 0.913099 -3.4097 0.414938 0.0773409 -1.18016 0.0453889 0.157494 1.6482 0.0859391 0.156557 3.29326 0.0832865 -2.15543 20.9715 -1.33983 0.867978 -7.12369 -1.91109 74.2871 -0.613838 -2.07633 97.5053 22.8918 26.4173 1.4184e-006 -2.99976e-006 -4.57489e-006 6.58147 0.0462145 -0.0547283 -7.04805e-006 2.31193e-006 -3.09145 8.02919 -4.95143 0.697676 -65.2917 2.17501 -0.373073 -103.939 12.4309 -13.3057 -1.49435e-006 1.32911e-006 -1.24508e-006 -11.331 6.44131 1.16863 5.87123e-006 -1.87649e-006 3.00876 -8.0289 -4.95145 -0.697695 174.989 -0.762995 1.97265 180 7.01546e-015 178.917 175.488 5.30195 179.782 -5.24389e-007 -7.81706e-006 0.0654585 -18.2975 67.5786 19.1803 8.13649 25.2327 -3.48774 -176.14 -0.671847 1.09127 4.54188e-006 -4.6773e-006 -1.16613 -3.31287 -9.48624 0.424434 3.41862e-006 4.08782e-006 -0.123772 18.3546 67.4785 -19.114 -8.13649 25.2327 3.48774 
